<?xml version="1.0" encoding="UTF-8" standalone="no"?>
<!DOCTYPE svg PUBLIC "-//W3C//DTD SVG 1.1//EN"
 "http://www.w3.org/Graphics/SVG/1.1/DTD/svg11.dtd">
<!-- Generated by graphviz version 2.43.0 (0)
 -->
<!-- Title: %3 Pages: 1 -->
<svg width="562pt" height="452pt"
 viewBox="0.00 0.00 561.89 451.86" xmlns="http://www.w3.org/2000/svg" xmlns:xlink="http://www.w3.org/1999/xlink">
<g id="graph0" class="graph" transform="scale(1 1) rotate(0) translate(4 447.86)">
<title>%3</title>
<polygon fill="white" stroke="transparent" points="-4,4 -4,-447.86 557.89,-447.86 557.89,4 -4,4"/>
<g id="clust1" class="cluster">
<title>clusterplayer (651)</title>
<path fill="none" stroke="black" d="M139.59,-232.91C139.59,-232.91 265.59,-232.91 265.59,-232.91 271.59,-232.91 277.59,-238.91 277.59,-244.91 277.59,-244.91 277.59,-423.86 277.59,-423.86 277.59,-429.86 271.59,-435.86 265.59,-435.86 265.59,-435.86 139.59,-435.86 139.59,-435.86 133.59,-435.86 127.59,-429.86 127.59,-423.86 127.59,-423.86 127.59,-244.91 127.59,-244.91 127.59,-238.91 133.59,-232.91 139.59,-232.91"/>
<text text-anchor="middle" x="225.59" y="-240.71" font-family="Times,serif" font-size="14.00">player (651)</text>
</g>
<g id="clust2" class="cluster">
<title>clustermatch (760)</title>
<path fill="none" stroke="black" d="M159.59,-8C159.59,-8 265.59,-8 265.59,-8 271.59,-8 277.59,-14 277.59,-20 277.59,-20 277.59,-209.93 277.59,-209.93 277.59,-215.93 271.59,-221.93 265.59,-221.93 265.59,-221.93 159.59,-221.93 159.59,-221.93 153.59,-221.93 147.59,-215.93 147.59,-209.93 147.59,-209.93 147.59,-20 147.59,-20 147.59,-14 153.59,-8 159.59,-8"/>
<text text-anchor="middle" x="226.09" y="-15.8" font-family="Times,serif" font-size="14.00">match (760)</text>
</g>
<!-- sigma -->
<g id="node1" class="node">
<title>sigma</title>
<ellipse fill="none" stroke="black" cx="68.59" cy="-187.43" rx="68.68" ry="37.45"/>
<text text-anchor="middle" x="68.59" y="-198.73" font-family="Times,serif" font-size="14.00">sigma</text>
<text text-anchor="middle" x="68.59" y="-183.73" font-family="Times,serif" font-size="14.00">~</text>
<text text-anchor="middle" x="68.59" y="-168.73" font-family="Times,serif" font-size="14.00">Halfnormal</text>
</g>
<!-- y_obs -->
<g id="node7" class="node">
<title>y_obs</title>
<ellipse fill="lightgrey" stroke="black" cx="208.59" cy="-76.48" rx="49.49" ry="37.45"/>
<text text-anchor="middle" x="208.59" y="-87.78" font-family="Times,serif" font-size="14.00">y_obs</text>
<text text-anchor="middle" x="208.59" y="-72.78" font-family="Times,serif" font-size="14.00">~</text>
<text text-anchor="middle" x="208.59" y="-57.78" font-family="Times,serif" font-size="14.00">Normal</text>
</g>
<!-- sigma&#45;&gt;y_obs -->
<g id="edge6" class="edge">
<title>sigma&#45;&gt;y_obs</title>
<path fill="none" stroke="black" d="M107.22,-156.37C125.55,-142.1 147.5,-125.02 166.28,-110.41"/>
<polygon fill="black" stroke="black" points="168.64,-113 174.38,-104.1 164.34,-107.48 168.64,-113"/>
</g>
<!-- mu_beta -->
<g id="node2" class="node">
<title>mu_beta</title>
<ellipse fill="none" stroke="black" cx="342.59" cy="-390.38" rx="54.39" ry="37.45"/>
<text text-anchor="middle" x="342.59" y="-401.68" font-family="Times,serif" font-size="14.00">mu_beta</text>
<text text-anchor="middle" x="342.59" y="-386.68" font-family="Times,serif" font-size="14.00">~</text>
<text text-anchor="middle" x="342.59" y="-371.68" font-family="Times,serif" font-size="14.00">Normal</text>
</g>
<!-- beta -->
<g id="node5" class="node">
<title>beta</title>
<polygon fill="none" stroke="black" points="269.59,-316.91 155.59,-316.91 155.59,-263.91 269.59,-263.91 269.59,-316.91"/>
<text text-anchor="middle" x="212.59" y="-301.71" font-family="Times,serif" font-size="14.00">beta</text>
<text text-anchor="middle" x="212.59" y="-286.71" font-family="Times,serif" font-size="14.00">~</text>
<text text-anchor="middle" x="212.59" y="-271.71" font-family="Times,serif" font-size="14.00">Deterministic</text>
</g>
<!-- mu_beta&#45;&gt;beta -->
<g id="edge2" class="edge">
<title>mu_beta&#45;&gt;beta</title>
<path fill="none" stroke="black" d="M306.38,-362.09C290.51,-350.13 271.78,-336.01 255.24,-323.55"/>
<polygon fill="black" stroke="black" points="256.91,-320.43 246.82,-317.2 252.7,-326.02 256.91,-320.43"/>
</g>
<!-- sigma_beta -->
<g id="node3" class="node">
<title>sigma_beta</title>
<ellipse fill="none" stroke="black" cx="484.59" cy="-390.38" rx="69.09" ry="37.45"/>
<text text-anchor="middle" x="484.59" y="-401.68" font-family="Times,serif" font-size="14.00">sigma_beta</text>
<text text-anchor="middle" x="484.59" y="-386.68" font-family="Times,serif" font-size="14.00">~</text>
<text text-anchor="middle" x="484.59" y="-371.68" font-family="Times,serif" font-size="14.00">Halfnormal</text>
</g>
<!-- sigma_beta&#45;&gt;beta -->
<g id="edge3" class="edge">
<title>sigma_beta&#45;&gt;beta</title>
<path fill="none" stroke="black" d="M433.57,-364.71C424.34,-360.56 414.74,-356.46 405.59,-352.91 364.36,-336.89 317.07,-321.77 279.61,-310.53"/>
<polygon fill="black" stroke="black" points="280.4,-307.11 269.82,-307.61 278.4,-313.82 280.4,-307.11"/>
</g>
<!-- beta_offset -->
<g id="node4" class="node">
<title>beta_offset</title>
<ellipse fill="none" stroke="black" cx="202.59" cy="-390.38" rx="67.35" ry="37.45"/>
<text text-anchor="middle" x="202.59" y="-401.68" font-family="Times,serif" font-size="14.00">beta_offset</text>
<text text-anchor="middle" x="202.59" y="-386.68" font-family="Times,serif" font-size="14.00">~</text>
<text text-anchor="middle" x="202.59" y="-371.68" font-family="Times,serif" font-size="14.00">Normal</text>
</g>
<!-- beta_offset&#45;&gt;beta -->
<g id="edge1" class="edge">
<title>beta_offset&#45;&gt;beta</title>
<path fill="none" stroke="black" d="M206.31,-352.9C207.18,-344.39 208.11,-335.34 208.97,-326.88"/>
<polygon fill="black" stroke="black" points="212.45,-327.22 209.99,-316.92 205.49,-326.51 212.45,-327.22"/>
</g>
<!-- mu -->
<g id="node6" class="node">
<title>mu</title>
<polygon fill="none" stroke="black" points="269.59,-213.93 155.59,-213.93 155.59,-160.93 269.59,-160.93 269.59,-213.93"/>
<text text-anchor="middle" x="212.59" y="-198.73" font-family="Times,serif" font-size="14.00">mu</text>
<text text-anchor="middle" x="212.59" y="-183.73" font-family="Times,serif" font-size="14.00">~</text>
<text text-anchor="middle" x="212.59" y="-168.73" font-family="Times,serif" font-size="14.00">Deterministic</text>
</g>
<!-- beta&#45;&gt;mu -->
<g id="edge4" class="edge">
<title>beta&#45;&gt;mu</title>
<path fill="none" stroke="black" d="M212.59,-263.66C212.59,-251.68 212.59,-237.22 212.59,-224.19"/>
<polygon fill="black" stroke="black" points="216.09,-224.12 212.59,-214.12 209.09,-224.12 216.09,-224.12"/>
</g>
<!-- mu&#45;&gt;y_obs -->
<g id="edge5" class="edge">
<title>mu&#45;&gt;y_obs</title>
<path fill="none" stroke="black" d="M211.65,-160.89C211.25,-149.98 210.77,-136.89 210.31,-124.35"/>
<polygon fill="black" stroke="black" points="213.79,-123.87 209.93,-114 206.8,-124.12 213.79,-123.87"/>
</g>
</g>
</svg>
