<?xml version="1.0" encoding="UTF-8" standalone="no"?>
<!DOCTYPE svg PUBLIC "-//W3C//DTD SVG 1.1//EN"
 "http://www.w3.org/Graphics/SVG/1.1/DTD/svg11.dtd">
<!-- Generated by graphviz version 13.1.2 (20250808.2320)
 -->
<!-- Pages: 1 -->
<svg width="465pt" height="478pt"
 viewBox="0.00 0.00 465.00 478.00" xmlns="http://www.w3.org/2000/svg" xmlns:xlink="http://www.w3.org/1999/xlink">
<g id="graph0" class="graph" transform="scale(1 1) rotate(0) translate(4 474.45)">
<polygon fill="white" stroke="none" points="-4,4 -4,-474.45 460.72,-474.45 460.72,4 -4,4"/>
<g id="clust1" class="cluster">
<title>clusterplayer (651)</title>
<path fill="none" stroke="black" d="M115.86,-247.13C115.86,-247.13 215.86,-247.13 215.86,-247.13 221.86,-247.13 227.86,-253.13 227.86,-259.13 227.86,-259.13 227.86,-450.45 227.86,-450.45 227.86,-456.45 221.86,-462.45 215.86,-462.45 215.86,-462.45 115.86,-462.45 115.86,-462.45 109.86,-462.45 103.86,-456.45 103.86,-450.45 103.86,-450.45 103.86,-259.13 103.86,-259.13 103.86,-253.13 109.86,-247.13 115.86,-247.13"/>
<text xml:space="preserve" text-anchor="middle" x="186.49" y="-254.33" font-family="Times New Roman,serif" font-size="14.00">player (651)</text>
</g>
<g id="clust2" class="cluster">
<title>clustermatch (760)</title>
<path fill="none" stroke="black" d="M133.86,-8C133.86,-8 215.86,-8 215.86,-8 221.86,-8 227.86,-14 227.86,-20 227.86,-20 227.86,-223.23 227.86,-223.23 227.86,-229.23 221.86,-235.23 215.86,-235.23 215.86,-235.23 133.86,-235.23 133.86,-235.23 127.86,-235.23 121.86,-229.23 121.86,-223.23 121.86,-223.23 121.86,-20 121.86,-20 121.86,-14 127.86,-8 133.86,-8"/>
<text xml:space="preserve" text-anchor="middle" x="186.49" y="-15.2" font-family="Times New Roman,serif" font-size="14.00">match (760)</text>
</g>
<!-- sigma -->
<g id="node1" class="node">
<title>sigma</title>
<ellipse fill="none" stroke="black" cx="55.86" cy="-198.48" rx="55.86" ry="40.66"/>
<text xml:space="preserve" text-anchor="middle" x="55.86" y="-209.93" font-family="Times New Roman,serif" font-size="14.00">sigma</text>
<text xml:space="preserve" text-anchor="middle" x="55.86" y="-193.43" font-family="Times New Roman,serif" font-size="14.00">~</text>
<text xml:space="preserve" text-anchor="middle" x="55.86" y="-176.93" font-family="Times New Roman,serif" font-size="14.00">Halfnormal</text>
</g>
<!-- y_obs -->
<g id="node7" class="node">
<title>y_obs</title>
<ellipse fill="lightgrey" stroke="black" cx="172.86" cy="-81.16" rx="41.01" ry="40.66"/>
<text xml:space="preserve" text-anchor="middle" x="172.86" y="-92.61" font-family="Times New Roman,serif" font-size="14.00">y_obs</text>
<text xml:space="preserve" text-anchor="middle" x="172.86" y="-76.11" font-family="Times New Roman,serif" font-size="14.00">~</text>
<text xml:space="preserve" text-anchor="middle" x="172.86" y="-59.61" font-family="Times New Roman,serif" font-size="14.00">Normal</text>
</g>
<!-- sigma&#45;&gt;y_obs -->
<g id="edge5" class="edge">
<title>sigma&#45;&gt;y_obs</title>
<path fill="none" stroke="black" d="M88.45,-165.35C103.17,-150.85 120.63,-133.64 135.84,-118.64"/>
<polygon fill="black" stroke="black" points="138.29,-121.15 142.95,-111.64 133.37,-116.16 138.29,-121.15"/>
</g>
<!-- mu_beta -->
<g id="node2" class="node">
<title>mu_beta</title>
<ellipse fill="none" stroke="black" cx="281.86" cy="-413.79" rx="44.72" ry="40.66"/>
<text xml:space="preserve" text-anchor="middle" x="281.86" y="-425.24" font-family="Times New Roman,serif" font-size="14.00">mu_beta</text>
<text xml:space="preserve" text-anchor="middle" x="281.86" y="-408.74" font-family="Times New Roman,serif" font-size="14.00">~</text>
<text xml:space="preserve" text-anchor="middle" x="281.86" y="-392.24" font-family="Times New Roman,serif" font-size="14.00">Normal</text>
</g>
<!-- beta -->
<g id="node5" class="node">
<title>beta</title>
<polygon fill="none" stroke="black" points="219.99,-337.13 129.74,-337.13 129.74,-279.63 219.99,-279.63 219.99,-337.13"/>
<text xml:space="preserve" text-anchor="middle" x="174.86" y="-319.83" font-family="Times New Roman,serif" font-size="14.00">beta</text>
<text xml:space="preserve" text-anchor="middle" x="174.86" y="-303.33" font-family="Times New Roman,serif" font-size="14.00">~</text>
<text xml:space="preserve" text-anchor="middle" x="174.86" y="-286.83" font-family="Times New Roman,serif" font-size="14.00">Deterministic</text>
</g>
<!-- mu_beta&#45;&gt;beta -->
<g id="edge1" class="edge">
<title>mu_beta&#45;&gt;beta</title>
<path fill="none" stroke="black" d="M251.49,-383.44C239.22,-371.58 224.95,-357.79 212.07,-345.34"/>
<polygon fill="black" stroke="black" points="214.55,-342.87 204.93,-338.44 209.69,-347.91 214.55,-342.87"/>
</g>
<!-- sigma_beta -->
<g id="node3" class="node">
<title>sigma_beta</title>
<ellipse fill="none" stroke="black" cx="400.86" cy="-413.79" rx="55.86" ry="40.66"/>
<text xml:space="preserve" text-anchor="middle" x="400.86" y="-425.24" font-family="Times New Roman,serif" font-size="14.00">sigma_beta</text>
<text xml:space="preserve" text-anchor="middle" x="400.86" y="-408.74" font-family="Times New Roman,serif" font-size="14.00">~</text>
<text xml:space="preserve" text-anchor="middle" x="400.86" y="-392.24" font-family="Times New Roman,serif" font-size="14.00">Halfnormal</text>
</g>
<!-- sigma_beta&#45;&gt;beta -->
<g id="edge3" class="edge">
<title>sigma_beta&#45;&gt;beta</title>
<path fill="none" stroke="black" d="M359.5,-386.12C351.77,-381.55 343.67,-377.03 335.86,-373.13 301.93,-356.22 262.35,-340.5 230.93,-328.9"/>
<polygon fill="black" stroke="black" points="232.19,-325.63 221.6,-325.49 229.79,-332.21 232.19,-325.63"/>
</g>
<!-- beta_offset -->
<g id="node4" class="node">
<title>beta_offset</title>
<ellipse fill="none" stroke="black" cx="165.86" cy="-413.79" rx="53.74" ry="40.66"/>
<text xml:space="preserve" text-anchor="middle" x="165.86" y="-425.24" font-family="Times New Roman,serif" font-size="14.00">beta_offset</text>
<text xml:space="preserve" text-anchor="middle" x="165.86" y="-408.74" font-family="Times New Roman,serif" font-size="14.00">~</text>
<text xml:space="preserve" text-anchor="middle" x="165.86" y="-392.24" font-family="Times New Roman,serif" font-size="14.00">Normal</text>
</g>
<!-- beta_offset&#45;&gt;beta -->
<g id="edge2" class="edge">
<title>beta_offset&#45;&gt;beta</title>
<path fill="none" stroke="black" d="M169.34,-372.81C170.03,-364.87 170.76,-356.54 171.45,-348.62"/>
<polygon fill="black" stroke="black" points="174.91,-349.18 172.29,-338.92 167.94,-348.58 174.91,-349.18"/>
</g>
<!-- mu -->
<g id="node6" class="node">
<title>mu</title>
<polygon fill="none" stroke="black" points="219.99,-227.23 129.74,-227.23 129.74,-169.73 219.99,-169.73 219.99,-227.23"/>
<text xml:space="preserve" text-anchor="middle" x="174.86" y="-209.93" font-family="Times New Roman,serif" font-size="14.00">mu</text>
<text xml:space="preserve" text-anchor="middle" x="174.86" y="-193.43" font-family="Times New Roman,serif" font-size="14.00">~</text>
<text xml:space="preserve" text-anchor="middle" x="174.86" y="-176.93" font-family="Times New Roman,serif" font-size="14.00">Deterministic</text>
</g>
<!-- beta&#45;&gt;mu -->
<g id="edge4" class="edge">
<title>beta&#45;&gt;mu</title>
<path fill="none" stroke="black" d="M174.86,-279.31C174.86,-266.95 174.86,-252.21 174.86,-238.78"/>
<polygon fill="black" stroke="black" points="178.36,-238.92 174.86,-228.92 171.36,-238.92 178.36,-238.92"/>
</g>
<!-- mu&#45;&gt;y_obs -->
<g id="edge6" class="edge">
<title>mu&#45;&gt;y_obs</title>
<path fill="none" stroke="black" d="M174.37,-169.27C174.18,-158.44 173.96,-145.73 173.75,-133.41"/>
<polygon fill="black" stroke="black" points="177.26,-133.72 173.58,-123.78 170.26,-133.84 177.26,-133.72"/>
</g>
</g>
</svg>
